<svg width="253" height="173" viewBox="0 0 253 173" fill="none" xmlns="http://www.w3.org/2000/svg">
<path d="M1.57182 102.121L51.0973 71.7401C54.4539 68.9194 59.6516 57.9932 59.6516 57.9932C62.7645 52.1186 68.3084 31.2407 75.4908 23.5377C81.7732 16.8015 95.52 10.7448 100.848 7.82413C104.061 6.05738 111.449 4.09318 119.839 2.0059C129.568 -0.41473 143.12 1.13919 141.476 11.0294C140.984 13.9911 139.509 16.7912 136.389 18.9067C124.865 26.7148 109.6 31.0637 109.149 34.2562C108.698 37.4487 118.277 40.5591 119.08 45.4926C119.08 45.4926 127.604 48.8877 133.209 48.38C133.209 48.38 155.643 47.6722 162.049 47.2773C162.049 47.2773 216.154 23.43 222.088 22.9172C231.173 22.1325 232.678 35.4819 230.037 38.0461C227.396 40.6103 187.594 64.9782 179.932 66.9988C179.932 66.9988 183.794 67.8373 190.894 63.6012C197.994 59.3651 205.582 54.4264 212.346 52.575C212.346 52.575 233.009 38.9077 240.509 39.3872C248.009 39.8667 252.61 46.4388 250.93 50.7621C249.251 55.0854 248.243 54.6495 248.243 54.6495C248.243 54.6495 254.028 61.7729 251.269 66.1321C248.509 70.4913 234.399 81.1123 234.399 81.1123C234.399 81.1123 238.737 85.4125 235.552 90.7846C232.368 96.1566 218.977 113.275 214.418 118.735C209.859 124.194 201.084 131.984 199.11 132.966C197.135 133.948 184.199 137.548 176.319 138.371C168.439 139.195 155.787 143.5 142.863 143.072C129.94 142.644 96.9021 133.058 85.5349 136.543C74.1677 140.028 38.048 167.019 38.048 167.019L1 172.496L1.57182 102.121Z" fill="#59C43A" stroke="black" stroke-width="0.512845" stroke-miterlimit="10"/>
<path d="M179.932 67C179.932 67 163.777 71.5361 160.516 73.0157L179.932 67Z" fill="#59C43A"/>
<path d="M179.932 67C179.932 67 163.777 71.5361 160.516 73.0157" stroke="black" stroke-width="0.512845" stroke-miterlimit="10"/>
<path d="M248.244 54.6483C248.244 54.6483 242.52 51.3712 218.624 69.031C194.728 86.6909 167.34 89.7705 167.34 89.7705" fill="#59C43A"/>
<path d="M248.244 54.6483C248.244 54.6483 242.52 51.3712 218.624 69.031C194.728 86.6909 167.34 89.7705 167.34 89.7705" stroke="black" stroke-width="0.512845" stroke-miterlimit="10"/>
<path d="M234.402 81.1176C234.402 81.1176 226.394 76.7404 213.219 92.4412C200.044 108.142 188.382 115.535 174.961 113.286" fill="#59C43A"/>
<path d="M234.402 81.1176C234.402 81.1176 226.394 76.7404 213.219 92.4412C200.044 108.142 188.382 115.535 174.961 113.286" stroke="black" stroke-width="0.512845" stroke-miterlimit="10"/>
<path d="M170.656 115.458C169.925 114.484 167.477 81.4563 151.848 60.7168L170.656 115.458Z" fill="#59C43A"/>
<path d="M170.656 115.458C169.925 114.484 167.477 81.4563 151.848 60.7168" stroke="black" stroke-width="0.512845" stroke-miterlimit="10"/>
<path opacity="0.3" d="M225.17 39.9083C225.17 39.9083 194.494 57.281 179.93 62.0966C165.365 66.9122 156.516 67.9097 156.516 67.9097C156.516 67.9097 158.667 75.8203 162.244 72.3458C162.244 72.3458 181.248 67.1071 188.994 62.8453C197.279 58.2887 219.883 44.7906 219.883 44.7906L230.037 38.0313C230.037 38.0313 229.214 37.6698 225.17 39.9083Z" fill="black"/>
<path opacity="0.3" d="M221.552 84.4316C221.552 84.4316 213.8 89.3037 207.087 95.1322C200.374 100.961 187.391 107.953 182.768 108.858C178.145 109.764 169.367 107.984 169.367 107.984L170.121 112.684C170.121 112.684 176.275 114.479 181.424 113.62C186.573 112.761 192.522 111.325 197.281 107.656C202.041 103.986 209.333 96.922 211.862 93.9372C214.39 90.9525 221.552 84.4316 221.552 84.4316Z" fill="black"/>
<path opacity="0.3" d="M135.756 142.334C133.804 142.032 94.9024 135.524 87.2457 128.634C79.5889 121.744 71.168 107.199 71.168 107.199C71.168 107.199 81.0992 137.242 85.5276 136.542C89.9561 135.842 135.756 142.334 135.756 142.334Z" fill="black"/>
<path opacity="0.3" d="M63.6778 80.555C58.5493 65.6389 65.9625 41.6582 65.9625 41.6582C65.9625 41.6582 59.6494 57.9923 56.957 63.2182L51.0951 71.7392L25.1016 87.6835C26.0298 87.1143 57.7519 72.9931 57.7519 72.9931C60.2853 83.2013 65.9574 97.1173 65.9574 97.1173C65.9574 97.1173 68.7986 95.4736 63.6778 80.555Z" fill="black"/>
<path opacity="0.3" d="M189.796 79.9806C190.221 78.2703 190.085 76.0753 188.075 73.8496C188.075 73.8496 188.496 78.7549 186.885 80.6832C186.744 80.8525 186.629 81.0217 186.508 81.1961C185.04 81.7099 183.541 82.1329 182.021 82.4628C168.741 85.1475 163.956 85.2219 163.441 83.7449C163.156 82.9269 163.812 85.0424 164.466 87.1194L96.4219 92.171C96.4219 92.171 102.343 110.969 142.209 109.456C182.075 107.944 185.624 85.5271 185.624 85.5271H185.554C190.511 83.9885 196.686 81.8217 201.53 79.2447C209.871 74.806 212.489 73.3777 215.556 71.2033C218.623 69.0288 231.198 60.1951 231.198 60.1951C230.649 59.4899 205.637 73.8085 189.796 79.9806Z" fill="black"/>
<path d="M135.756 104.036C158.632 104.036 177.176 97.0472 177.176 88.4255C177.176 79.8037 158.632 72.8145 135.756 72.8145C112.88 72.8145 94.3359 79.8037 94.3359 88.4255C94.3359 97.0472 112.88 104.036 135.756 104.036Z" fill="#FFFAD7" stroke="black" stroke-width="0.512845" stroke-miterlimit="10"/>
<path d="M135.756 95.0951C158.632 95.0951 177.176 88.1058 177.176 79.4841C177.176 70.8623 158.632 63.873 135.756 63.873C112.88 63.873 94.3359 70.8623 94.3359 79.4841C94.3359 88.1058 112.88 95.0951 135.756 95.0951Z" fill="#FFFAD7" stroke="black" stroke-width="0.512845" stroke-miterlimit="10"/>
<path d="M94.3398 88.4252V79.4863C94.3398 79.4863 94.7014 83.9378 98.5041 86.3149" fill="#FFFAD7"/>
<path d="M94.3398 88.4252V79.4863C94.3398 79.4863 94.7014 83.9378 98.5041 86.3149" stroke="black" stroke-width="0.512845" stroke-miterlimit="10"/>
<path d="M177.176 88.4252V79.4863C177.176 79.4863 176.781 84.325 172.273 86.861" fill="#FFFAD7"/>
<path d="M177.176 88.4252V79.4863C177.176 79.4863 176.781 84.325 172.273 86.861" stroke="black" stroke-width="0.512845" stroke-miterlimit="10"/>
<path d="M105.426 90.1133V99.0573" stroke="black" stroke-width="0.512845" stroke-miterlimit="10"/>
<path d="M108.539 91.252V100.191" stroke="black" stroke-width="0.512845" stroke-miterlimit="10"/>
<path d="M111.531 92.1465V101.088" stroke="black" stroke-width="0.512845" stroke-miterlimit="10"/>
<path opacity="0.16" d="M118.905 93.9132V102.852C118.905 102.852 98.3298 100.59 94.3398 89.7746V79.6484C94.3398 79.6484 94.3142 85.6872 103.922 89.6335C113.531 93.5799 118.905 93.9132 118.905 93.9132Z" fill="#0A0A0A"/>
<path opacity="0.57" d="M137.984 95.0969L138.082 104.038L144.659 103.654L144.495 94.7405" fill="#FFD869"/>
<path d="M146.654 92.5658C169.53 92.5658 188.074 85.5765 188.074 76.9548C188.074 68.333 169.53 61.3438 146.654 61.3438C123.779 61.3438 105.234 68.333 105.234 76.9548C105.234 85.5765 123.779 92.5658 146.654 92.5658Z" fill="#FFFAD7" stroke="black" stroke-width="0.512845" stroke-miterlimit="10"/>
<path d="M146.654 83.6263C169.53 83.6263 188.074 76.637 188.074 68.0153C188.074 59.3936 169.53 52.4043 146.654 52.4043C123.779 52.4043 105.234 59.3936 105.234 68.0153C105.234 76.637 123.779 83.6263 146.654 83.6263Z" fill="#FFFAD7" stroke="black" stroke-width="0.512845" stroke-miterlimit="10"/>
<path d="M105.234 76.9551V68.0137C105.234 68.0137 105.596 72.4677 109.399 74.8448" fill="#FFFAD7"/>
<path d="M105.234 76.9551V68.0137C105.234 68.0137 105.596 72.4677 109.399 74.8448" stroke="black" stroke-width="0.512845" stroke-miterlimit="10"/>
<path d="M188.077 76.9551V68.0137C188.077 68.0137 187.677 72.8549 183.172 75.3884" fill="#FFFAD7"/>
<path d="M188.077 76.9551V68.0137C188.077 68.0137 187.677 72.8549 183.172 75.3884" stroke="black" stroke-width="0.512845" stroke-miterlimit="10"/>
<path d="M116.328 78.6448V87.5862" stroke="black" stroke-width="0.512845" stroke-miterlimit="10"/>
<path d="M119.438 79.7832V88.7247" stroke="black" stroke-width="0.512845" stroke-miterlimit="10"/>
<path d="M122.43 80.6797V89.6211" stroke="black" stroke-width="0.512845" stroke-miterlimit="10"/>
<path opacity="0.16" d="M129.8 82.4452V91.3867C129.8 91.3867 109.224 89.125 105.234 78.3091V68.1855C105.234 68.1855 105.211 74.2269 114.819 78.1732C124.428 82.1196 129.8 82.4452 129.8 82.4452Z" fill="#0A0A0A"/>
<path opacity="0.57" d="M148.883 83.6279L148.983 92.5668L155.558 92.1847L155.396 83.2715" fill="#FFD869"/>
<path d="M133.303 79.8724C156.178 79.8724 174.723 72.8831 174.723 64.2614C174.723 55.6397 156.178 48.6504 133.303 48.6504C110.427 48.6504 91.8828 55.6397 91.8828 64.2614C91.8828 72.8831 110.427 79.8724 133.303 79.8724Z" fill="#FFFAD7" stroke="black" stroke-width="0.512845" stroke-miterlimit="10"/>
<path d="M133.303 70.931C156.178 70.931 174.723 63.9417 174.723 55.32C174.723 46.6983 156.178 39.709 133.303 39.709C110.427 39.709 91.8828 46.6983 91.8828 55.32C91.8828 63.9417 110.427 70.931 133.303 70.931Z" fill="#FFFAD7" stroke="black" stroke-width="0.512845" stroke-miterlimit="10"/>
<path d="M91.8828 64.2618V55.3203C91.8828 55.3203 92.2469 59.7718 96.0471 62.1489" fill="#FFFAD7"/>
<path d="M91.8828 64.2618V55.3203C91.8828 55.3203 92.2469 59.7718 96.0471 62.1489" stroke="black" stroke-width="0.512845" stroke-miterlimit="10"/>
<path d="M174.726 64.2618V55.3203C174.726 55.3203 174.331 60.1616 169.82 62.695" fill="#FFFAD7"/>
<path d="M174.726 64.2618V55.3203C174.726 55.3203 174.331 60.1616 169.82 62.695" stroke="black" stroke-width="0.512845" stroke-miterlimit="10"/>
<path d="M102.977 65.9512V74.8926" stroke="black" stroke-width="0.512845" stroke-miterlimit="10"/>
<path d="M106.086 67.0859V76.0274" stroke="black" stroke-width="0.512845" stroke-miterlimit="10"/>
<path d="M109.078 67.9844V76.9233" stroke="black" stroke-width="0.512845" stroke-miterlimit="10"/>
<path opacity="0.16" d="M116.451 69.7492V78.6983C116.451 78.6983 95.8728 76.4367 91.8828 65.6208V55.4844C91.8828 55.4844 91.8597 61.5257 101.468 65.472C111.076 69.4184 116.451 69.7492 116.451 69.7492Z" fill="#0A0A0A"/>
<path opacity="0.57" d="M135.535 70.93L135.633 79.8715L142.207 79.4869L142.046 70.5762" fill="#FFD869"/>
<path opacity="0.3" d="M111.532 37.6426C111.532 37.6426 91.9772 43.9198 90.6694 52.4048C89.3617 60.8899 90.1309 67.4081 90.6694 68.18C91.2079 68.9518 96.0543 72.4879 96.0543 72.4879C95.0621 73.4107 94.2926 74.5469 93.804 75.8107C93.3153 77.0745 93.1203 78.4329 93.2336 79.7831C93.4591 82.6805 93.8305 85.5646 94.3465 88.4245L94.9029 76.924C94.9029 76.924 95.7645 75.0675 97.0389 73.9392L98.3211 72.811C98.3211 72.811 94.4311 69.7775 93.2362 68.1851C93.2362 68.1851 91.7259 67.2953 91.8823 60.7232C92.0387 54.1511 91.5156 54.3383 92.608 52.4048C93.7003 50.4714 99.1878 45.9609 101.873 45.0224C104.557 44.0839 112.758 41.7735 112.758 41.7735L116.073 41.1325L111.532 37.6426Z" fill="black"/>
<path opacity="0.3" d="M113.487 30.7832C113.487 30.7832 99.3273 34.7193 101.179 35.3347C103.03 35.9501 111.543 37.6425 111.543 37.6425C111.543 37.6425 105.053 34.7834 113.487 30.7832Z" fill="black"/>
<path opacity="0.3" d="M172.709 69.0801C172.709 69.0801 173.525 78.3113 154.503 80.6806C135.482 83.05 126.297 79.655 126.297 79.655C126.297 79.655 159.255 82.1038 172.709 69.0801Z" fill="black"/>
<path opacity="0.3" d="M143.718 92.5666C143.718 92.5666 120.989 94.9256 105.427 85.1483C105.427 85.1483 94.8468 76.9248 104.168 75.3555L106.086 76.0273C106.086 76.0273 105.237 75.6068 105.237 76.9555C105.237 78.3043 105.991 82.125 110.666 84.8457C115.34 87.5663 123.81 90.1126 123.81 90.1126C123.81 90.1126 131.602 91.5101 135.757 92.146C138.392 92.533 141.057 92.6738 143.718 92.5666Z" fill="black"/>
</svg>
