<svg width="136" height="48" viewBox="0 0 136 48" fill="none" xmlns="http://www.w3.org/2000/svg">
<g clip-path="url(#clip0_2457_82152)">
<path d="M135.123 10.5772C132.708 9.93012 130.018 10.5568 128.122 12.4521C126.222 14.3526 125.6 17.0376 126.247 19.4578C128.662 20.1048 131.353 19.4781 133.248 17.5777C135.143 15.6824 135.77 12.9922 135.123 10.5772Z" fill="#011308"/>
<path d="M52.8147 10.3225H48.3515V13.2929C46.1657 11.4434 43.3431 10.3276 40.2606 10.3276C33.3365 10.3276 27.7065 15.9576 27.7065 22.8817C27.7065 29.8058 33.3365 35.4409 40.2606 35.4409C43.3431 35.4409 46.1657 34.32 48.3515 32.4756V35.4409C48.3515 36.6331 48.0916 37.7642 47.628 38.7832C46.3593 41.5854 43.5316 43.5368 40.2606 43.5368C39.4862 43.5368 38.7372 43.4247 38.0341 43.2209C36.6941 42.8439 35.4968 42.1204 34.5389 41.1626L31.3851 44.3164C31.8539 44.78 32.3583 45.2131 32.8933 45.6003C34.9618 47.1084 37.5093 48 40.2606 48C46.8586 48 52.2899 42.8796 52.779 36.4038C52.8045 36.0879 52.8147 35.7669 52.8147 35.4409V22.9581C52.8147 22.9326 52.8198 22.9072 52.8198 22.8817C52.8198 22.8562 52.8147 22.8307 52.8147 22.8053V10.3225ZM48.3515 22.9224C48.3311 27.3653 44.7137 30.9776 40.2606 30.9776C35.7974 30.9776 32.1647 27.3449 32.1647 22.8817C32.1647 18.4185 35.7974 14.7908 40.2606 14.7908C44.7137 14.7908 48.3311 18.3981 48.3515 22.846V22.9224Z" fill="#011308"/>
<path d="M123.253 22.8817V10.3276H118.79V22.9174C118.774 27.3653 115.152 30.9827 110.699 30.9827C106.236 30.9827 102.603 27.35 102.603 22.8868V10.3225H98.1396V22.8817C98.1396 29.8058 103.775 35.4409 110.699 35.4409C113.776 35.4409 116.599 34.3251 118.79 32.4756V35.3542C118.79 35.3542 118.79 35.3542 118.785 35.3542C118.79 35.3848 118.79 35.4052 118.79 35.4358C118.79 36.628 118.53 37.7591 118.066 38.7781C116.798 41.5803 113.975 43.5317 110.704 43.5368C109.935 43.5368 109.181 43.4298 108.477 43.226C107.137 42.8439 105.94 42.1255 104.982 41.1676L101.834 44.3215C102.302 44.7902 102.802 45.2182 103.342 45.6054C105.41 47.1135 107.963 48 110.709 48C117.312 47.9949 122.733 42.8694 123.222 36.3936C123.248 36.0777 123.258 35.7619 123.258 35.4409V22.9428C123.253 22.9224 123.258 22.9021 123.253 22.8817Z" fill="#011308"/>
<path d="M20.65 13.2929C18.4592 11.4434 15.6366 10.3276 12.5541 10.3276C5.62998 10.3276 0 15.9576 0 22.8817C0 29.8058 5.62998 35.4409 12.5541 35.4409C15.6366 35.4409 18.4592 34.32 20.65 32.4705V35.4409H25.1133V10.3276H20.65V13.2929ZM12.5541 30.9777C8.09086 30.9777 4.46322 27.3449 4.46322 22.8817C4.46322 18.4185 8.09086 14.7909 12.5541 14.7909C17.0173 14.7909 20.65 18.4185 20.65 22.8817C20.65 27.3449 17.0173 30.9777 12.5541 30.9777Z" fill="#011308"/>
<path d="M60.182 13.2929V10.3276H55.7188V35.4409H60.182V25.1133V22.8817C60.182 18.4185 63.8147 14.7857 68.2779 14.7857H70.5095V10.3225H68.2779C65.1954 10.3276 62.3728 11.4434 60.182 13.2929Z" fill="#011308"/>
<path d="M80.6948 12.5592V35.4408H85.158V14.7908H95.4856V10.3276H85.479C86.4522 6.94958 89.5652 4.46322 93.254 4.46322H95.4856V0H93.254C86.3299 0 80.6948 5.63507 80.6948 12.5592Z" fill="#011308"/>
<path d="M73.2578 10.3223V23.9769V35.4406H77.721V23.9769V12.6762V10.3223H77.4969H73.2578Z" fill="#011308"/>
</g>
<defs>
<clipPath id="clip0_2457_82152">
<rect width="135.369" height="48" fill="white"/>
</clipPath>
</defs>
</svg>
