<svg width="271" height="96" viewBox="0 0 271 96" fill="none" xmlns="http://www.w3.org/2000/svg">
<g clip-path="url(#clip0_2387_47028)">
<path d="M270.246 21.1544C265.416 19.8602 260.035 21.1136 256.245 24.9043C252.444 28.7052 251.201 34.0753 252.495 38.9155C257.325 40.2097 262.705 38.9563 266.496 35.1554C270.286 31.3647 271.54 25.9844 270.246 21.1544Z" fill="#0CC14C"/>
<path d="M105.63 20.645H96.7039V26.5858C92.3324 22.8868 86.6872 20.6552 80.5222 20.6552C66.674 20.6552 55.4141 31.9152 55.4141 45.7634C55.4141 59.6116 66.674 70.8817 80.5222 70.8817C86.6872 70.8817 92.3324 68.6399 96.7039 64.9512V70.8817C96.7039 73.2662 96.1843 75.5284 95.257 77.5664C92.7197 83.1709 87.0642 87.0736 80.5222 87.0736C78.9733 87.0736 77.4754 86.8495 76.0692 86.4419C73.3892 85.6878 70.9946 84.2408 69.0789 82.3251L62.7712 88.6327C63.7087 89.56 64.7175 90.4262 65.7875 91.2006C69.9246 94.2168 75.0196 96.0001 80.5222 96.0001C93.7183 96.0001 104.581 85.7591 105.559 72.8076C105.61 72.1759 105.63 71.5339 105.63 70.8817V45.9162C105.63 45.8653 105.641 45.8143 105.641 45.7634C105.641 45.7124 105.63 45.6615 105.63 45.6105V20.645ZM96.7039 45.8449C96.6632 54.7306 89.4283 61.9553 80.5222 61.9553C71.5958 61.9553 64.3303 54.6898 64.3303 45.7634C64.3303 36.8369 71.5958 29.5817 80.5222 29.5817C89.4283 29.5817 96.6632 36.7962 96.7039 45.692V45.8449Z" fill="#0CC14C"/>
<path d="M246.508 45.7634V20.6552H237.581V45.8347C237.551 54.7306 230.306 61.9655 221.4 61.9655C212.473 61.9655 205.208 54.7 205.208 45.7736V20.645H196.281V45.7634C196.281 59.6116 207.551 70.8817 221.4 70.8817C227.554 70.8817 233.2 68.6501 237.581 64.9512V70.7085C237.581 70.7085 237.581 70.7085 237.571 70.7085C237.581 70.7696 237.581 70.8104 237.581 70.8715C237.581 73.256 237.062 75.5182 236.134 77.5562C233.597 83.1607 227.952 87.0635 221.41 87.0736C219.871 87.0736 218.363 86.8596 216.957 86.452C214.277 85.6878 211.882 84.251 209.966 82.3353L203.669 88.6429C204.606 89.5804 205.605 90.4363 206.685 91.2108C210.822 94.227 215.928 96.0001 221.42 96.0001C234.626 95.9899 245.468 85.7388 246.447 72.7873C246.498 72.1555 246.518 71.5237 246.518 70.8817V45.8857C246.508 45.8449 246.518 45.8041 246.508 45.7634Z" fill="#0CC14C"/>
<path d="M41.3001 26.5859C36.9184 22.8869 31.2731 20.6553 25.1082 20.6553C11.26 20.6553 0 31.9152 0 45.7634C0 59.6116 11.26 70.8818 25.1082 70.8818C31.2731 70.8818 36.9184 68.64 41.3001 64.941V70.8818H50.2265V20.6553H41.3001V26.5859ZM25.1082 61.9553C16.1817 61.9553 8.92644 54.6899 8.92644 45.7634C8.92644 36.837 16.1817 29.5817 25.1082 29.5817C34.0346 29.5817 41.3001 36.837 41.3001 45.7634C41.3001 54.6899 34.0346 61.9553 25.1082 61.9553Z" fill="#0CC14C"/>
<path d="M120.364 26.5858V20.6552H111.438V70.8817H120.364V50.2266V45.7634C120.364 36.8369 127.629 29.5715 136.556 29.5715H141.019V20.645H136.556C130.391 20.6552 124.746 22.8868 120.364 26.5858Z" fill="#0CC14C"/>
<path d="M161.391 25.1184V70.8816H170.317V29.5816H190.972V20.6551H170.959C172.905 13.8992 179.131 8.92644 186.509 8.92644H190.972V0H186.509C172.661 0 161.391 11.2701 161.391 25.1184Z" fill="#0CC14C"/>
<path d="M146.516 20.6445V47.9537V70.8812H155.442V47.9537V25.3523V20.6445H154.994H146.516Z" fill="#0CC14C"/>
</g>
<defs>
<clipPath id="clip0_2387_47028">
<rect width="270.738" height="96" fill="white"/>
</clipPath>
</defs>
</svg>
