<svg width="137" height="202" viewBox="0 0 137 202" fill="none" xmlns="http://www.w3.org/2000/svg">
<path d="M57.5309 29.8184C56.1294 30.6344 54.972 31.8686 54.2509 33.3221C54.1288 33.5685 54.0045 33.8353 53.7694 33.9754C53.566 34.0952 53.3173 34.0975 53.0822 34.0997C44.5443 34.1472 36.038 36.835 29.0237 41.7018C27.681 42.6331 26.3721 43.6617 25.4046 44.9795C24.6293 46.0352 24.0913 47.2559 23.7364 48.5172C22.9407 51.3587 23.0854 54.4556 24.1388 57.2111C25.1153 59.7632 26.8175 61.9627 28.497 64.1215C29.6612 65.6157 30.9067 67.1754 32.6676 67.8784C32.9796 68.0027 33.3277 68.1158 33.5108 68.3983C33.6555 68.6221 33.6622 68.9069 33.7436 69.1624C34.0284 70.0575 35.0977 70.3898 36.0177 70.5888C37.8238 70.9798 39.6277 71.3709 41.4339 71.762C41.8046 71.8411 42.1934 71.9225 42.5573 71.814C42.9213 71.7055 43.2377 71.3415 43.1541 70.973C43.1179 70.8103 41.9922 70.1525 41.8046 69.9423C41.3977 69.4924 40.9591 68.8843 40.8529 68.2718C40.654 67.1076 41.1287 65.5343 41.4565 64.4379C41.9379 62.8217 42.9258 59.6344 44.6415 58.9653C45.0981 58.7867 45.6 58.7709 46.0882 58.7822C47.5892 58.8183 49.0811 59.1032 50.4894 59.6185C50.555 58.3007 49.9695 57.0145 49.1399 55.9882C48.3103 54.9619 47.2479 54.1527 46.1945 53.3547C45.6474 52.9388 45.0348 52.5025 44.3499 52.5409C43.9995 52.559 43.6627 52.7037 43.3123 52.7059C42.962 52.7059 42.5596 52.4776 42.5686 52.1272C42.5732 51.9464 42.6839 51.7882 42.7969 51.648C43.9475 50.2375 45.7718 49.5842 47.5349 49.123C50.2815 48.4042 53.1116 47.9973 55.9485 47.9137C57.3478 47.873 58.747 47.9069 60.144 47.9431C63.259 48.0244 66.374 48.1036 69.4912 48.1849C71.5663 48.2392 73.6415 48.2912 75.7166 48.3454C77.2199 48.3839 78.7999 48.5783 80.258 48.2663C81.5374 47.9928 82.9118 47.5814 84.1031 48.42C84.6049 48.7727 84.953 49.3016 85.2469 49.8396C87.426 53.8113 87.148 59.0082 84.5529 62.7222C84.128 63.3326 83.5854 63.9406 82.8553 64.083C82.3512 64.1825 81.8358 64.0446 81.3453 63.8954C77.1407 62.616 73.1939 60.6629 68.9984 59.4038C66.444 58.6375 63.8219 57.7943 61.1952 57.3241C58.9505 56.9218 56.7171 55.6875 54.4272 55.6084C52.4651 55.5406 52.23 58.6239 51.7033 60.1385C57.8315 62.6205 64.0976 64.768 70.4587 66.5696C71.3222 66.8137 72.2015 67.0533 73.099 67.0624C73.854 67.0692 74.5977 66.9132 75.3323 66.7414C77.0232 66.3503 78.7366 65.8779 80.4659 66.0248C81.9533 66.1491 83.3594 66.7233 84.8038 67.0985C86.2483 67.4738 87.8465 67.6343 89.1824 66.9674C89.6888 66.7165 90.1341 66.3548 90.6382 66.1017C91.8024 65.5185 93.1767 65.5456 94.4155 65.1432C97.0445 64.2865 97.9645 62.0169 99.5287 60.0232C100.171 59.2049 100.79 58.7663 101.12 57.7197C101.572 56.282 101.556 54.6748 101.303 53.2032C100.942 51.1123 100.069 49.1479 99.1196 47.2491C98.8438 46.6975 98.5567 46.1437 98.1453 45.6871C97.648 45.1355 96.997 44.7512 96.3573 44.376C92.7473 42.2579 89.1011 40.1217 85.118 38.8287C81.1509 37.538 76.8808 36.8576 72.7938 36.0709C72.5384 36.0212 72.2761 35.9692 72.0569 35.829C71.7608 35.6369 71.5867 35.3114 71.4262 34.9994C70.9809 34.1359 70.5333 33.2724 70.088 32.4089C69.5545 32.7728 69.021 33.139 68.4875 33.503C69.3465 36.0257 68.7927 39.0548 66.869 40.9016C64.9476 42.7484 61.6766 43.1214 59.545 41.521C57.9378 40.3161 57.1602 38.2478 57.0539 36.2427C56.9477 34.2354 57.4246 32.2484 57.8994 30.2953" fill="#9BF6FF"/>
<path d="M110.25 63.1393C109.341 64.3487 108.31 65.479 107.575 66.8013C106.947 67.9316 106.551 69.1749 106.032 70.3571C105.277 72.0751 104.259 73.6575 103.249 75.233C102.372 76.6029 101.942 78.0541 101.135 79.4579C101.049 79.6048 100.964 79.7585 100.948 79.9281C100.932 80.0795 100.975 80.231 101.02 80.3757C101.312 81.3138 101.719 82.218 102.227 83.0589C102.431 83.3934 102.65 83.7212 102.921 84.006C104.271 85.4256 106.212 85.6675 108.028 85.1544C110.155 84.5531 110.727 83.9179 111.943 82.0371C112.818 80.6831 113.912 79.4895 115.001 78.305C116.387 76.7973 117.526 75.2285 119.337 74.2587C121.279 73.2189 122.791 71.2591 124.272 69.6609C126.184 67.597 128.096 65.5332 130.009 63.4694C131.164 62.2238 132.346 60.9286 132.902 59.3236C133.605 57.2959 133.149 54.9111 131.747 53.2881C131.18 52.6303 130.483 52.1013 129.774 51.604C128.171 50.4783 126.448 49.4701 124.552 48.9886C122.917 48.5727 120.75 48.4755 119.237 49.3661C117.854 50.1799 116.837 52.0561 116.007 53.3943C114.013 56.5997 112.524 60.1103 110.25 63.1393Z" fill="#FFD6A5"/>
<path d="M83.6396 144.953C81.5011 142.371 77.8527 141.686 74.5049 141.526C72.6445 141.435 70.7208 141.467 69.0051 142.192C66.0077 143.458 64.258 146.533 62.7232 149.401C59.2736 148.486 55.7744 150.59 53.0595 152.907C52.1169 153.712 51.1991 154.564 50.5142 155.595C49.0607 157.785 48.8075 160.523 48.4029 163.12C48.3373 163.543 48.265 163.968 48.0909 164.359C47.8694 164.854 47.4964 165.263 47.1709 165.697C46.0068 167.248 45.4303 169.16 45.0415 171.059C44.508 173.674 44.2933 176.389 44.7838 179.014C45.2743 181.638 46.5154 184.174 48.5385 185.917C50.2746 187.414 52.4673 188.248 54.6102 189.055C54.4633 189.376 54.409 189.747 54.4949 190.088C55.1731 192.764 57.0583 195.043 59.3844 196.53C61.7104 198.018 64.4479 198.768 67.1944 199.055C68.3699 199.18 69.6652 199.189 70.6033 198.47C70.757 198.352 70.705 197.984 70.5716 198.124C70.0811 198.633 75.9606 201.067 76.5077 201.169C78.4856 201.533 80.7936 201.723 82.8077 201.535C87.0778 201.135 91.1987 198.834 93.5903 195.244C93.7757 194.966 93.9588 194.675 94.2368 194.491C94.6301 194.231 95.1365 194.238 95.5999 194.152C96.4634 193.99 97.2184 193.488 97.9395 192.986C100.643 191.11 103.385 188.946 104.565 185.872C105.465 183.528 105.329 180.96 105.008 178.516C104.857 177.359 104.667 176.808 105.11 175.756C105.623 174.545 106.025 173.419 106.281 172.117C106.5 171.005 106.706 169.872 106.606 168.744C106.514 167.68 106.156 166.66 105.799 165.652C104.943 163.22 104.063 160.749 102.542 158.667C102.601 154.804 101.183 151.042 98.473 148.287C97.6705 147.471 96.7595 146.741 95.7039 146.298C94.8924 145.956 94.0175 145.793 93.1518 145.631C89.9712 145.041 86.8676 144.643 83.6396 144.953Z" fill="#FDFFB6"/>
<path opacity="0.5" d="M56.0815 191.289C56.0815 191.289 60.3109 196.276 65.9147 196.843C65.9147 196.843 65.4784 194.671 65.9147 193.249L71.184 198.828C71.184 198.828 62.1035 198.887 60.4285 197.13C58.7512 195.374 56.3958 193.251 56.0815 191.289Z" fill="#51A755"/>
<path opacity="0.5" d="M75.2804 159.608C75.2804 159.608 85.9704 160.338 90.0483 171.485C90.0483 171.485 90.8011 164.717 88.5044 160.637C88.5044 160.637 100.406 169.138 101.089 177.387C101.771 185.635 98.6314 189.06 98.6314 189.06C98.6314 189.06 97.7634 185.773 95.5345 184.681C95.5345 184.681 96.0658 191.178 94.2596 193.911C94.2596 193.911 103.544 192.141 105.115 183.906L104.595 176.103C104.595 176.103 107.135 170.174 105.82 163.912L103.141 158.507C103.141 158.507 100.27 143.317 85.6629 144.544L83.7008 145.123C83.7008 145.123 75.4229 139.627 69.0076 142.085C62.5923 144.542 62.972 149.219 62.972 149.219L67.2218 149.863C67.2218 149.861 61.2133 157.942 75.2804 159.608Z" fill="#51A755"/>
<path d="M104.664 71.8721C104.664 71.8721 97.1569 66.0309 91.1644 65.9767L88.3591 67.5771L83.0469 67.0707L81.0418 66.2818L80.167 65.9382C80.167 65.9382 75.6031 66.648 75.472 66.6752C75.3408 66.7023 67.7049 68.4225 60.9324 71.8698C54.1599 75.3193 39.426 84.1714 34.3738 91.3847C29.3215 98.598 28.2478 97.6711 24.3123 103.255C20.3767 108.838 15.8264 115.986 14.1129 119.322C12.4017 122.659 7.50771 133.715 6.09037 137.372C4.67304 141.03 2.52329 151.776 2.11188 153.422C1.70047 155.068 0.649345 173.084 1.47217 179.302C2.29499 185.521 3.12459 188.876 3.03191 188.555C2.93923 188.234 16.6062 193.34 20.813 194.253C25.0198 195.169 37.8233 197.088 42.8077 196.814C47.7921 196.541 55.8395 196.586 59.0404 194.848C59.0404 194.848 54.9873 192.101 54.8426 188.993C54.8426 188.993 46.5104 186.161 45.4457 180.039C44.381 173.916 43.7662 168.255 48.6127 163.696C48.6127 163.696 48.0204 153.793 55.1523 151.001C62.2842 148.209 62.8335 149.398 62.9714 149.215C63.1093 149.032 65.3494 141.762 71.2923 141.624C77.2352 141.486 83.9036 145.243 83.9036 145.243C83.9036 145.243 89.7493 141.74 97.2112 147.97C97.2112 147.97 103.62 155.54 103.208 158.985C103.208 158.985 106.502 164.123 105.769 163.94C105.037 163.757 119.88 146.873 124.536 128.871C129.12 111.151 128.707 86.2082 115.652 77.9053C115.444 77.772 115.232 77.6431 115.015 77.5188C115.015 77.5188 108.674 85.5888 108.417 85.365C108.159 85.1412 102.783 85.6566 101.784 81.8702C100.785 78.0839 101.407 77.9008 101.407 77.9008L104.664 71.8721Z" fill="#FFD6A5"/>
<path opacity="0.5" d="M101.687 81.4459C101.561 80.5688 88.3911 117.709 73.2752 132.264C58.1592 146.82 16.4123 181.482 8.5638 180.922C0.713073 180.361 0.783145 162.964 1.87723 156.465C1.87723 156.465 -0.326757 183.709 2.84247 187.832C6.01169 191.957 41.6801 201.879 58.7514 195.375C58.7514 195.375 55.1663 190.135 54.8408 188.996C54.8408 188.996 48.5566 187.497 46.9923 183.401C46.9923 183.401 43.2874 177.262 44.6708 171.986C46.0542 166.71 48.6108 163.697 48.6108 163.697C48.6108 163.697 46.9923 149.191 62.8475 149.492C62.8475 149.492 66.4032 135.051 84.4059 145.531C84.4059 145.531 96.5855 140.034 103.141 158.502L105.7 163.645L115.454 149.492L123.126 132.621L127.016 116.316L127.29 101.546L124.093 88.6434C124.093 88.6434 121.11 80.7746 116.01 78.4395L108.442 85.3091C108.444 85.3114 102.153 84.6875 101.687 81.4459Z" fill="#51A755"/>
<path opacity="0.5" d="M63.2838 57.8839C62.4836 57.5788 61.6833 57.2646 60.8583 57.034C59.9179 56.774 57.3748 55.7116 56.4096 55.5669C55.0759 55.368 55.0895 55.5488 53.7558 55.3499C53.4009 55.2957 53.2449 55.7817 52.9216 55.9399C52.6391 56.0778 52.4514 56.3536 52.2932 56.6248C51.7213 57.5968 51.3438 58.6819 51.1833 59.7963C51.1652 59.9274 51.1517 60.0698 51.224 60.1806C51.2986 60.2959 51.4433 60.3388 51.5766 60.375C53.1228 60.7887 54.6803 61.2069 56.127 61.8986C57.1443 62.3846 58.2044 62.8864 59.233 63.3498C62.6915 64.9118 65.4832 65.7663 68.9395 66.4874C69.9319 66.6954 70.9243 67.699 71.937 67.69C72.6988 67.6832 73.4583 67.5792 74.211 67.4526C75.8499 67.1768 81.4469 66.449 79.148 63.4674C78.2686 62.3281 75.9855 62.093 74.6835 61.6838C72.8638 61.1142 71.0441 60.5491 69.2312 59.9591C67.2329 59.308 65.2459 58.6299 63.2838 57.8839Z" fill="#51A755"/>
<path opacity="0.5" d="M73.2822 36.488C73.2822 36.488 76.4017 42.033 75.459 48.1296L69.2788 48.4958C69.2788 48.4958 72.7374 43.9093 72.3395 40.3648C71.9417 36.8203 71.4986 37.3583 71.6478 36.9243C71.797 36.488 73.2822 36.488 73.2822 36.488Z" fill="#51A755"/>
<path opacity="0.5" d="M81.8449 46.2718C82.957 45.2885 92.8987 51.2313 87.0282 63.5104C84.2274 69.3651 79.894 64.826 79.894 64.826L81.8381 66.9848L86.6394 67.7059H88.6264L91.1672 64.6384C91.1672 64.6384 93.3621 59.012 93.491 56.9843C93.6198 54.9589 93.7419 49.5179 89.3135 46.3577L81.8449 46.2718Z" fill="#51A755"/>
<path opacity="0.5" d="M50.0116 56.3943C50.0116 56.3943 42.5949 53.6161 39.3104 62.0365C37.6692 66.2433 37.5268 71.3678 42.0297 71.9307L44.2089 70.9655C44.2089 70.9655 41.4533 70.8592 41.0871 69.1051C40.7187 67.3486 41.5889 62.8503 42.5768 61.5392C43.5646 60.2281 45.8455 57.8478 47.6674 58.3948C49.4871 58.9418 50.0274 59.6381 50.0274 59.6381C50.0274 59.6381 50.3122 56.7627 50.0116 56.3943Z" fill="#51A755"/>
<path opacity="0.5" d="M38.6666 48.946C38.6485 48.8601 42.3874 46.7194 46.5512 46.2492C49.6639 45.8966 55.2722 46.9771 55.2722 46.9771C55.2722 46.9771 56.9066 48.347 56.6376 48.295C56.3686 48.2407 47.4486 47.4292 41.9285 52.2192C41.9262 52.2192 39.0486 50.7612 38.6666 48.946Z" fill="#51A755"/>
<path opacity="0.5" d="M24.2717 47.5167C24.3644 47.3494 25.1284 58.9774 34.6564 61.247C34.6564 61.247 33.0921 69.3034 34.1953 68.6818C34.1953 68.6818 27.5517 63.6137 25.8857 60.0805C24.222 56.5519 22.7481 50.2858 24.2717 47.5167Z" fill="#51A755"/>
<path opacity="0.5" d="M54.7257 16.2414C53.9752 13.6486 53.3038 10.832 54.2487 8.30251C55.4061 5.20562 58.6296 3.44695 61.6903 2.20141C63.5326 1.45319 65.506 0.781816 67.4749 1.06664C69.3285 1.33564 70.9471 2.41842 72.6876 3.11239C73.7614 3.54189 74.9255 3.8448 75.7936 4.60659C76.361 5.10616 76.7566 5.76622 77.1431 6.41499C77.7806 7.48646 78.4248 8.56699 78.8475 9.74019C80.0298 13.0134 79.1323 17.1411 76.2344 19.0693C76.2864 17.6791 76.3203 16.2075 75.6489 14.9891C75.034 13.8724 73.9151 13.1355 72.8097 12.5025C71.0036 11.4695 69.107 10.5947 67.1494 9.88938C65.7456 9.38303 64.2876 8.96031 62.7957 8.94901C61.3038 8.93771 59.7598 9.3785 58.6793 10.407C57.4858 11.5418 56.9975 13.2259 56.7443 14.8534C56.6313 15.5768 56.7308 18.034 56.0345 18.4431C55.1936 18.9427 54.9043 16.8608 54.7257 16.2414Z" fill="#51A755"/>
<path opacity="0.5" d="M91.3094 48.2265C91.2461 48.1134 95.0167 46.4588 94.3272 43.4297C94.3272 43.4297 101.828 48.439 101.477 53.6449C101.127 58.8508 98.5295 65.5442 90.2583 66.1703C90.2583 66.1726 97.293 58.7921 91.3094 48.2265Z" fill="#51A755"/>
<path opacity="0.5" d="M42.8871 61.2482C42.8871 61.2482 48.5452 69.456 63.2316 70.0958C63.3108 70.1003 63.3921 70.1026 63.4713 70.1048C63.4713 70.1048 59.3097 73.1203 59.0746 72.883C58.8372 72.6456 44.7114 70.8937 44.7114 70.8937C44.7114 70.8937 40.1587 71.0678 40.968 67.0712C41.7772 63.0769 42.8871 61.2482 42.8871 61.2482Z" fill="#51A755"/>
<path opacity="0.5" d="M57.6365 31.4727L56.9629 36.9386C56.9629 36.9386 57.2861 40.3225 57.6365 40.3044C57.9869 40.2864 59.9807 42.2394 59.9807 42.2394L64.1377 42.4926L67.1351 40.6232L68.4417 38.1231L68.8576 35.3901C68.8576 35.3901 68.8102 33.2991 68.2066 33.2991C67.6031 33.2991 64.0473 34.7052 63.8913 34.8385C63.7353 34.9719 58.6628 32.8154 58.6628 32.8154L57.6365 31.4727Z" fill="#51A755"/>
<path opacity="0.5" d="M48.3755 54.4342C48.3755 54.4342 50.324 52.0358 53.0638 52.4359C55.8035 52.836 77.0206 56.1499 80.3797 55.2932C83.7388 54.4365 83.1103 48.9977 82.5972 48.6202C82.5972 48.6202 83.3748 48.3874 83.524 48.4665C83.6755 48.5456 86.6842 52.4359 86.6819 54.3212C86.6797 56.2064 86.3655 62.9721 82.9385 64.0458L73.501 61.3174L58.1499 56.1364L54.2822 55.2435C54.2822 55.2435 51.5198 55.196 51.5764 60.4991L50.0121 59.3757C50.0121 59.3757 50.5863 56.9999 50.0121 56.3918C49.4379 55.786 48.4094 53.9211 48.3755 54.4342Z" fill="#51A755"/>
<path opacity="0.5" d="M111.896 75.699C116.408 70.3009 117.567 62.9385 118.555 55.9739C121.29 59.993 126.951 62.5858 131.72 61.6432C129.932 61.9959 122.875 70.1811 121.528 71.872C118.594 75.5521 116.471 78.0974 112.7 80.9366C110.811 82.3607 109.323 88.4482 103.446 83.7667C100.921 81.7572 110.184 77.7448 111.896 75.699Z" fill="#51A755"/>
<path d="M105.819 163.907C136.268 124.579 130.945 86.6276 115.653 77.9043" stroke="black" stroke-width="1.3563" stroke-miterlimit="10"/>
<path d="M79.8555 65.9375C74.3376 66.6157 67.8703 68.3811 60.4265 71.8713C30.3076 85.9904 -8.28145 135.403 3.01202 188.581C3.01202 188.581 29.6746 201.016 58.7515 195.374" stroke="black" stroke-width="1.3563" stroke-miterlimit="10"/>
<path d="M60.4265 71.8711C30.3076 85.9902 -8.28145 135.402 3.01202 188.581" stroke="black" stroke-width="1.3563" stroke-miterlimit="10"/>
<path d="M104.665 71.872C104.665 71.872 99.5063 67.5793 91.165 65.9766" stroke="black" stroke-width="1.3563" stroke-miterlimit="10"/>
<path d="M118.071 50.3564L101.072 78.4409C101.072 78.4409 101.072 85.9797 108.444 85.3106L131.72 61.6431" stroke="black" stroke-width="1.3563" stroke-miterlimit="10"/>
<path d="M132.839 60.7634C134.775 58.3069 133.191 53.8313 129.302 50.7669C125.412 47.7025 120.691 47.2098 118.755 49.6663C116.82 52.1229 118.403 56.5984 122.293 59.6628C126.182 62.7272 130.904 63.2199 132.839 60.7634Z" fill="#A8BF7D"/>
<path d="M132.521 60.8982C134.456 58.4416 132.873 53.9661 128.983 50.9017C125.094 47.8373 120.372 47.3446 118.437 49.8011C116.501 52.2576 118.085 56.7332 121.974 59.7976C125.864 62.8619 130.585 63.3547 132.521 60.8982Z" stroke="black" stroke-width="1.3563" stroke-miterlimit="10"/>
<path d="M103.975 73.7855C103.975 73.7855 80.2734 66.8141 56.7822 85.3525" stroke="black" stroke-width="1.3563" stroke-miterlimit="10"/>
<path d="M101.072 78.4395C101.072 78.4395 74.8051 89.4707 61.0093 106.499" stroke="black" stroke-width="1.3563" stroke-miterlimit="10"/>
<path d="M113.03 80.5996C112.725 80.9116 122.309 98.3152 113.023 119.501" stroke="black" stroke-width="1.3563" stroke-miterlimit="10"/>
<path d="M105.481 85.0771C105.481 85.0771 102.025 100.286 91.3369 115.698" stroke="black" stroke-width="1.3563" stroke-miterlimit="10"/>
<path d="M3.01397 188.581C2.46014 166.164 10.8059 142.478 17.549 131.277" stroke="black" stroke-width="1.3563" stroke-miterlimit="10"/>
<path d="M2.8429 187.83C2.31621 187.566 28.0769 193.348 51.9116 188.049" stroke="black" stroke-width="1.3563" stroke-miterlimit="10"/>
<path d="M4.01757 187.635C2.23177 187.798 22.0564 185.217 47.8193 161.906" stroke="black" stroke-width="1.3563" stroke-miterlimit="10"/>
<path d="M4.01807 187.635C4.01807 187.635 16.7334 150.561 46.1222 121.832" stroke="black" stroke-width="1.3563" stroke-miterlimit="10"/>
<path d="M61.9107 9.37731C59.4897 9.62597 57.2992 11.796 57.0461 14.2148C56.6347 18.1526 56.23 23.0443 56.4154 24.2039C56.7522 26.3198 59.397 32.231 63.0274 33.4675C70.0733 35.8659 74.3547 27.9473 75.112 25.9784C75.5392 24.864 75.8715 21.2314 76.0795 18.2859C76.249 15.8604 75.1075 13.5321 73.0979 12.1645C73.064 12.1419 73.0278 12.117 72.9939 12.0944C69.793 9.90174 65.914 8.94556 62.0576 9.36375C62.0079 9.36827 61.9581 9.37279 61.9107 9.37731Z" stroke="black" stroke-width="1.3563" stroke-miterlimit="10"/>
<path d="M59.3594 23.252C59.3594 23.252 67.6893 22.0404 72.5381 25.3724" stroke="black" stroke-width="1.3563" stroke-miterlimit="10"/>
<path d="M61.4771 23.0687C61.4771 23.0687 62.0851 28.0961 65.9461 27.9446C69.807 27.7932 71.2402 24.6217 71.2402 24.6217" stroke="black" stroke-width="1.3563" stroke-miterlimit="10"/>
<path d="M59.3594 17.7975C59.3594 17.7975 62.0697 15.8647 65.2661 17.472" stroke="black" stroke-width="1.3563" stroke-miterlimit="10"/>
<path d="M68.4463 17.798C68.4463 17.798 72.0812 17.0407 73.4443 19.7669" stroke="black" stroke-width="1.3563" stroke-miterlimit="10"/>
<path d="M57.3291 26.9553C57.3291 26.9553 58.2943 30.5224 57.216 34.5913C56.7572 36.3206 56.9312 38.1674 57.7134 39.7746C58.4571 41.3005 59.7727 42.7133 62.0874 42.7133C62.3022 42.7133 64.0247 42.8693 65.7924 41.7684C67.8404 40.4935 68.9028 38.0996 68.5864 35.7102C68.4892 34.9778 68.4146 34.1256 68.444 33.3412" stroke="black" stroke-width="1.3563" stroke-miterlimit="10"/>
<path d="M57.7062 29.7354C57.7062 29.7354 55.5678 31.3787 54.7992 32.0976C53.8114 33.0221 50.7122 42.7219 56.368 48.2398C56.368 48.2398 59.3564 43.9313 62.8036 42.7129C65.2518 45.1881 65.2518 45.1881 67.137 48.2398" stroke="black" stroke-width="1.3563" stroke-miterlimit="10"/>
<path d="M69.5068 32.8174C69.5068 32.8174 71.2497 35.2768 71.799 36.2217C72.5381 37.4944 73.1259 44.7144 69.2808 48.2295" stroke="black" stroke-width="1.3563" stroke-miterlimit="10"/>
<path d="M71.7959 36.2209C71.7959 36.2209 99.9324 39.4512 101.399 53.1476C102.561 63.9957 90.0607 66.2427 90.0607 66.2427" stroke="black" stroke-width="1.3563" stroke-miterlimit="10"/>
<path d="M79.3984 48.2397C79.3984 48.2397 80.7954 46.3884 81.842 46.2708C82.8887 46.1556 89.4079 46.5059 89.4079 46.5059C89.4079 46.5059 94.6455 49.2954 93.2485 58.0254C92.324 63.801 90.3302 66.2152 89.0869 67.185C88.5467 67.6077 87.8527 67.7773 87.1746 67.671L82.6716 66.9703C81.4374 66.7781 80.3885 65.9666 79.8912 64.8205C79.7149 64.4114 79.5431 63.9208 79.3984 63.3376" stroke="black" stroke-width="1.3563" stroke-miterlimit="10"/>
<path d="M42.3599 51.9834C47.0188 47.8106 54.1416 48.2401 54.1416 48.2401H82.5312C83.3111 48.2401 84.0367 48.6334 84.4595 49.2867C85.4337 50.7967 86.9663 53.7986 86.6386 57.3295C86.4148 59.737 85.6055 61.4572 84.7963 62.6101C83.926 63.8511 82.3278 64.3506 80.8969 63.8556C75.743 62.0788 61.9629 57.3431 55.7194 55.3448C54.0647 54.8159 52.2925 55.7788 51.8653 57.4652C51.6392 58.3558 51.4968 59.3956 51.5759 60.4988" stroke="black" stroke-width="1.3563" stroke-miterlimit="10"/>
<path d="M88.9766 46.4832C89.2885 46.5239 91.9785 45.9746 91.9785 43.9514" stroke="black" stroke-width="1.3563" stroke-miterlimit="10"/>
<path d="M53.9336 33.9163C53.9336 33.9163 33.684 34.981 26.3984 43.9551C19.1128 52.9293 26.5272 63.4113 33.9394 68.5223" stroke="black" stroke-width="1.3563" stroke-miterlimit="10"/>
<path d="M37.1362 45.2202C37.1362 45.2202 38.2868 50.8828 42.8869 52.6731" stroke="black" stroke-width="1.3563" stroke-miterlimit="10"/>
<path d="M44.0894 70.7924C43.0044 72.212 42.281 72.2233 42.0301 72.307C41.8605 72.3635 38.3726 71.3643 36.1528 70.7178C34.9411 70.3652 34.046 69.3276 33.8877 68.0753C33.673 66.3709 33.7634 64.3477 34.4167 62.0149C36.146 55.846 40.936 53.3979 43.1287 52.5773C43.7978 52.3264 44.546 52.4078 45.1473 52.7943C46.7342 53.8183 49.8853 55.907 50.0096 56.3908C50.1769 57.0373 50.5115 58.4569 50.0096 59.3746" stroke="black" stroke-width="1.3563" stroke-miterlimit="10"/>
<path d="M58.43 72.852C51.7932 72.1784 44.9529 71.0323 42.9185 70.5034C41.5079 70.1372 40.5653 68.7967 40.719 67.3477C41.2502 62.3814 43.4633 59.9988 45.075 58.9047C45.9815 58.2899 47.1524 58.2266 48.1199 58.7397C50.3149 59.9039 63.5636 65.5506 72.1174 67.2324" stroke="black" stroke-width="1.3563" stroke-miterlimit="10"/>
<path d="M56.3681 19.7668C56.3681 19.7668 51.9149 12.748 54.7654 7.41998C57.6159 2.09198 68.2696 -1.12924 75.4558 4.07444C82.6419 9.27811 81.5523 17.929 76.1565 21.6657" stroke="black" stroke-width="1.3563" stroke-miterlimit="10"/>
<path d="M56.9717 36.2217C56.6643 36.6829 64.4359 38.5636 68.4438 33.4504C68.4438 33.4504 60.4507 35.1797 57.5617 27.4397C57.5617 27.4374 57.9686 34.7276 56.9717 36.2217Z" fill="black"/>
<path d="M34.2539 69.2002L36.7992 88.9389" stroke="black" stroke-width="1.3563" stroke-miterlimit="10"/>
<path d="M125.628 125.251C126.064 125.251 126.064 124.573 125.628 124.573C125.191 124.573 125.191 125.251 125.628 125.251Z" fill="black"/>
<path d="M125.748 124.574C125.746 124.572 125.746 124.57 125.744 124.568C125.726 124.545 125.708 124.518 125.69 124.495C125.687 124.493 125.683 124.488 125.681 124.486C125.656 124.466 125.631 124.445 125.604 124.427C125.601 124.425 125.597 124.423 125.595 124.423C125.52 124.387 125.461 124.366 125.378 124.366C125.339 124.366 125.301 124.373 125.265 124.38C125.26 124.38 125.256 124.382 125.251 124.384C125.219 124.396 125.19 124.409 125.161 124.423C125.156 124.425 125.154 124.427 125.149 124.43C125.147 124.432 125.145 124.432 125.143 124.434C125.12 124.452 125.093 124.47 125.07 124.488C125.068 124.491 125.063 124.495 125.061 124.497C125.041 124.522 125.018 124.547 125.002 124.574C124.978 124.613 124.964 124.656 124.962 124.701C124.953 124.746 124.953 124.791 124.968 124.837C124.98 124.882 125 124.92 125.029 124.952C125.054 124.988 125.086 125.017 125.124 125.04C125.152 125.051 125.179 125.063 125.206 125.074C125.267 125.09 125.326 125.09 125.387 125.074C125.414 125.063 125.441 125.051 125.468 125.04C125.52 125.011 125.558 124.97 125.59 124.918C125.592 124.916 125.592 124.913 125.595 124.911C125.577 124.934 125.558 124.956 125.543 124.979C125.547 124.974 125.552 124.97 125.556 124.965C125.534 124.983 125.511 125.002 125.488 125.017C125.495 125.013 125.502 125.008 125.509 125.006C125.482 125.017 125.454 125.029 125.427 125.04C125.436 125.038 125.443 125.035 125.452 125.033C125.423 125.038 125.391 125.042 125.362 125.044C125.371 125.042 125.382 125.042 125.391 125.044C125.362 125.04 125.33 125.035 125.301 125.033C125.31 125.035 125.319 125.038 125.328 125.04C125.301 125.029 125.274 125.017 125.246 125.006C125.253 125.008 125.26 125.013 125.267 125.017C125.244 124.999 125.222 124.981 125.199 124.965C125.204 124.97 125.208 124.974 125.213 124.979C125.195 124.956 125.176 124.934 125.161 124.911C125.163 124.913 125.163 124.916 125.165 124.918C125.185 124.956 125.215 124.99 125.253 125.013C125.285 125.042 125.323 125.063 125.369 125.074C125.414 125.087 125.459 125.09 125.504 125.081C125.549 125.078 125.592 125.065 125.631 125.04C125.653 125.022 125.676 125.004 125.699 124.988C125.742 124.945 125.769 124.895 125.787 124.839C125.791 124.809 125.796 124.778 125.798 124.748C125.796 124.685 125.78 124.626 125.748 124.574Z" fill="black"/>
<path d="M67.221 149.862C67.221 149.862 56.7346 147.663 51.3026 154.031C45.8706 160.401 50.1656 170.36 50.1656 170.36" stroke="black" stroke-width="1.3563" stroke-miterlimit="10"/>
<path d="M48.613 163.698C48.613 163.698 43.0657 170.179 44.6548 177.736C46.244 185.293 51.8862 188.475 54.922 189.402" stroke="black" stroke-width="1.3563" stroke-miterlimit="10"/>
<path d="M53.9117 180.919C53.9117 180.919 51.8863 200.409 71.8442 199.082" stroke="black" stroke-width="1.3563" stroke-miterlimit="10"/>
<path d="M95.1251 184.501C95.1251 184.501 98.4503 197.759 84.8579 200.675C71.2632 203.591 65.9126 193.251 65.9126 193.251" stroke="black" stroke-width="1.3563" stroke-miterlimit="10"/>
<path d="M62.8477 149.494C62.8477 149.494 64.5702 142.966 70.4995 141.639C76.4288 140.312 83.7008 145.12 83.7008 145.12" stroke="black" stroke-width="1.3563" stroke-miterlimit="10"/>
<path d="M80.6987 146.717C80.6987 146.717 86.732 141.28 95.4847 146.717C100.419 149.782 102.433 155.121 103.252 159.199" stroke="black" stroke-width="1.3563" stroke-miterlimit="10"/>
<path d="M83.7007 151.089C83.7007 151.089 95.6248 149.791 101.923 157.321C108.401 165.066 107.054 171.865 104.594 176.101" stroke="black" stroke-width="1.3563" stroke-miterlimit="10"/>
<path d="M100.941 168.807C103.525 172.151 105.268 176.181 105.105 180.919C104.802 189.683 99.3632 192.864 94.2612 193.908" stroke="black" stroke-width="1.3563" stroke-miterlimit="10"/>
<path d="M67.2214 157.852C67.2214 157.852 57.6482 161.163 55.7358 170.804" stroke="black" stroke-width="1.3563" stroke-miterlimit="10"/>
<path d="M73.2752 159.928C73.2752 159.928 66.9571 165.74 65.915 174.31" stroke="black" stroke-width="1.3563" stroke-miterlimit="10"/>
<path d="M77.7261 159.197C77.7261 159.197 86.7568 162.527 90.0481 171.485" stroke="black" stroke-width="1.3563" stroke-miterlimit="10"/>
<path d="M75.6332 159.58C80.8177 158.964 84.6608 155.438 84.2171 151.704C83.7733 147.97 79.2108 145.442 74.0264 146.058C68.842 146.674 64.9989 150.201 65.4426 153.935C65.8863 157.669 70.4488 160.196 75.6332 159.58Z" stroke="black" stroke-width="1.3563" stroke-miterlimit="10"/>
<path d="M83.7007 155.116C83.7007 155.116 90.3172 155.824 93.3078 159.196" stroke="black" stroke-width="1.3563" stroke-miterlimit="10"/>
<path d="M36.9101 88.9065C36.7451 88.5222 34.3716 70.1036 34.3716 70.1036L38.6733 71.4441L42.0302 72.3076C42.0302 72.3076 44.5371 70.8722 44.2093 70.9649C43.8815 71.0553 58.1634 72.9993 57.9441 72.8886C57.7248 72.7801 45.7125 81.1078 45.7125 81.1078L36.9101 88.9065Z" fill="black"/>
<path d="M48.5723 48.945C48.5723 48.945 50.2654 46.9287 50.8215 46.6619C51.3776 46.3952 54.8971 46.4268 54.8971 46.4268C54.8971 46.4268 60.58 48.5133 58.6111 56.2464C58.6111 56.2464 58.0144 57.4739 57.3769 57.6208C56.7417 57.7678 53.0616 56.2464 53.0616 56.2464C54.1738 55.444 54.766 54.0922 54.5739 52.7336C54.1128 49.4627 51.3595 48.2284 51.3595 48.2284" fill="#FDC6FF"/>
<path opacity="0.5" d="M52.7339 49.1967C52.7339 49.1967 57.6912 47.9466 58.5163 50.2456C58.5931 50.4603 59.0249 54.4388 59.0249 54.4388L57.9466 57.6306H55.8805L53.6132 56.4687L53.3691 55.9533L54.4948 54.5405L54.5739 52.7344L54.1535 51.2198L52.7339 49.1967Z" fill="#51A755"/>
<path d="M48.5723 48.945C48.5723 48.945 50.2654 46.9287 50.8215 46.6619C51.3776 46.3952 54.8971 46.4268 54.8971 46.4268C54.8971 46.4268 60.58 48.5133 58.6111 56.2464C58.6111 56.2464 58.0144 57.4739 57.3769 57.6208C56.7417 57.7678 53.0616 56.2464 53.0616 56.2464C54.1738 55.444 54.766 54.0922 54.5739 52.7336C54.1128 49.4627 51.3595 48.2284 51.3595 48.2284" stroke="black" stroke-width="1.3563" stroke-miterlimit="10"/>
</svg>
