<svg width="308" height="273" viewBox="0 0 308 273" fill="none" xmlns="http://www.w3.org/2000/svg">
<path d="M154 271.904C238.5 271.904 307 246.083 307 214.232C307 182.381 238.5 156.561 154 156.561C69.5004 156.561 1 182.381 1 214.232C1 246.083 69.5004 271.904 154 271.904Z" fill="#EDF46C" stroke="black" stroke-width="1.25793" stroke-miterlimit="10"/>
<path d="M154 238.877C238.5 238.877 307 213.056 307 181.205C307 149.354 238.5 123.533 154 123.533C69.5004 123.533 1 149.354 1 181.205C1 213.056 69.5004 238.877 154 238.877Z" fill="#EDF46C" stroke="black" stroke-width="1.25793" stroke-miterlimit="10"/>
<path d="M1 214.233V181.207C1 181.207 2.3539 197.67 16.3803 206.435" fill="#EDF46C"/>
<path d="M1 214.233V181.207C1 181.207 2.3539 197.67 16.3803 206.435" stroke="black" stroke-width="1.25793" stroke-miterlimit="10"/>
<path d="M306.982 214.233V181.207C306.982 181.207 305.525 199.088 288.867 208.452" fill="#EDF46C"/>
<path d="M306.982 214.233V181.207C306.982 181.207 305.525 199.088 288.867 208.452" stroke="black" stroke-width="1.25793" stroke-miterlimit="10"/>
<path d="M41.9648 220.475V253.51" stroke="black" stroke-width="1.25793" stroke-miterlimit="10"/>
<path d="M53.4531 224.676V257.702" stroke="black" stroke-width="1.25793" stroke-miterlimit="10"/>
<path d="M64.5234 227.988V261.014" stroke="black" stroke-width="1.25793" stroke-miterlimit="10"/>
<path opacity="0.16" d="M91.743 233.901V266.932C91.743 266.932 15.7395 258.596 1 218.611V181.207C1 181.207 0.909745 203.537 36.4 218.101C71.8903 232.664 91.743 233.901 91.743 233.901Z" fill="#0A0A0A"/>
<path d="M200.083 0C205.025 16.0212 211.162 26.9156 212.033 31.5098C212.904 36.1041 213.04 39.0827 212.453 43.1444C211.866 47.2061 213.026 53.4972 214.064 59.0708C215.102 64.6443 216.14 67.8305 210.598 77.9622C204.781 88.6084 205.39 95.9466 199.167 103C192.943 110.054 176.742 123.76 176.742 123.76C176.742 123.76 156.803 135.079 152.909 136.848C149.014 138.617 133.453 144.714 133.453 144.714C133.453 144.714 127.22 109.996 133.286 94.6197C133.286 94.6197 135.267 90.5039 135.876 83.3823C136.486 76.2608 143.291 68.8595 143.716 68.2547C144.14 67.65 149.131 61.6703 151.148 55.9613C153.166 50.2523 154.308 48.0681 159.272 43.8664C164.236 39.6648 166.89 37.9093 167.91 34.1996C168.93 30.4899 169.688 26.9156 177.667 20.8546C177.667 20.8546 186.278 15.439 192.059 7.39231" fill="#006350"/>
<path d="M198.324 2.73312C198.324 2.73312 182.637 18.1586 176.369 21.9676C170.1 25.7765 168.927 30.4746 168.927 30.4746C168.927 30.4746 168.76 36.847 160.456 42.9711C152.152 49.0953 152.572 51.6902 151.145 55.9595C149.719 60.2288 142.174 70.4643 138.396 75.5821C134.619 80.6998 136.469 90.4254 133.283 94.618C130.097 98.8106 130.259 115.247 130.259 115.247L133.45 144.694C133.45 144.694 183.932 128.669 203.221 97.1362C205.107 93.5485 206.45 89.7006 207.206 85.7183C208.425 79.1925 216.81 71.3083 214.797 62.2507C212.784 53.1931 210.857 48.0753 212.45 43.1291C214.043 38.1828 212.563 29.062 206.976 19.7427C201.389 10.4233 199.841 -3.32333 198.324 2.73312Z" stroke="black" stroke-width="1.25793" stroke-miterlimit="10"/>
<path d="M134.367 142.044C149.675 123.902 159.906 102.122 169.97 80.6263C180.188 58.7834 190.572 36.3312 192.35 12.2813C192.955 4.13085 199.905 10.7514 198.317 2.73633" stroke="black" stroke-width="1.25793" stroke-miterlimit="10"/>
<path d="M178.148 18.0879C182.15 26.223 184.771 34.9664 185.906 43.961C186.024 44.8997 185.735 46.2626 184.796 46.1362" stroke="black" stroke-width="1.25793" stroke-miterlimit="10"/>
<path d="M185.684 43.187C194.347 39.9996 202.309 35.1609 209.129 28.9395" stroke="black" stroke-width="1.25793" stroke-miterlimit="10"/>
<path d="M165.121 37.3184C170.478 46.4858 174.022 56.5981 175.56 67.1042C175.596 67.3569 175.605 67.6728 175.388 67.8082C175.172 67.9436 174.869 67.5239 175.117 67.4562" stroke="black" stroke-width="1.25793" stroke-miterlimit="10"/>
<path d="M174.969 66.2186C186.14 61.2633 197.529 56.8571 209.137 53" stroke="black" stroke-width="1.25793" stroke-miterlimit="10"/>
<path d="M150.516 56.2227C155.399 66.3769 160.265 76.5372 165.115 86.7035C165.417 87.206 165.574 87.7826 165.567 88.3688C165.494 88.9465 164.948 89.5061 164.384 89.3662" stroke="black" stroke-width="1.25793" stroke-miterlimit="10"/>
<path d="M164.008 88.8646C176.066 84.6441 188.457 81.4422 201.051 79.2926C203.596 78.8412 206.186 78.4576 208.538 77.3926" stroke="black" stroke-width="1.25793" stroke-miterlimit="10"/>
<path d="M137.828 76.459C143.37 86.6042 148.402 97.0052 152.924 107.662C153.669 109.427 154.404 111.471 153.565 113.195" stroke="black" stroke-width="1.25793" stroke-miterlimit="10"/>
<path d="M153.203 113.687C167.697 109.037 182.539 105.555 197.589 103.275C199.507 102.986 201.628 102.603 202.797 101.055" stroke="black" stroke-width="1.25793" stroke-miterlimit="10"/>
<path d="M132.586 95.6406C138.534 106.927 142.595 119.111 144.609 131.709" stroke="black" stroke-width="1.25793" stroke-miterlimit="10"/>
<path d="M142.727 130.199C153.693 126.417 165.148 124.241 176.737 123.736" stroke="black" stroke-width="1.25793" stroke-miterlimit="10"/>
<path d="M37.8875 100.536L66.008 90.6072C66.008 90.6072 91.7322 82.371 105.109 84.7764C118.485 87.1818 134.191 91.045 148.352 101.989C148.352 101.989 162.794 111.805 170.123 120.172C177.452 128.539 187.918 142.737 190.978 150.319C194.038 157.901 194.241 160.834 200.766 165.243C207.292 169.653 205.532 177.952 200.766 182.447C196.001 186.942 192.228 191.297 183.27 190.48C174.311 189.663 165.312 188.986 154.102 190.764C142.892 192.543 129.046 193.901 115.258 192.276C102.721 190.796 80.576 183.313 68.2194 170.447C57.9162 159.724 48.5201 145.716 44.8962 139.077C41.2722 132.438 39.7198 131.504 35.9334 126.892C32.1469 122.28 28.5997 117.974 30.5629 111.381C32.7743 103.898 37.8875 100.536 37.8875 100.536Z" fill="#8E501C" stroke="#8E501C" stroke-width="1.25793" stroke-miterlimit="10"/>
<path d="M37.8874 100.536C37.8874 100.536 53.8228 94.3219 68.269 89.8992C82.7151 85.4765 108.719 77.7141 139.773 96.4656C170.827 115.217 183.612 134.998 190.996 150.31C190.996 150.31 194.019 160.555 198.451 163.592C202.883 166.629 206.665 169.008 203.646 177.131C200.626 185.255 192.539 193.107 174.311 189.677C156.083 186.247 137.332 200.96 97.5313 187.971C57.7311 174.983 47.798 137.76 35.9152 126.892C24.0325 116.025 32.9953 102.396 37.8874 100.536Z" stroke="black" stroke-width="1.25793" stroke-miterlimit="10"/>
<path d="M36.3984 102.444C98.5245 98.4456 161.883 125.776 201.602 173.714" stroke="black" stroke-width="1.25793" stroke-miterlimit="10"/>
<path d="M30.5469 111.381C40.2634 124.92 55.1563 133.698 69.9861 141.257C92.3277 152.619 115.574 162.107 139.486 169.621C154.488 174.315 169.872 178.264 185.582 178.715" stroke="black" stroke-width="1.25793" stroke-miterlimit="10"/>
<path d="M41.2539 132.428C61.4722 160.593 114.658 189.951 146.935 185.176" stroke="black" stroke-width="1.25793" stroke-miterlimit="10"/>
<path d="M81.6016 92.6836C121.388 93.0988 160.642 111.471 186.484 141.731" stroke="black" stroke-width="1.25793" stroke-miterlimit="10"/>
<path d="M248.711 87.2992L250.453 117.085C250.453 117.085 251.234 144.082 245.214 156.267C239.193 168.452 231.119 182.47 216.678 193.039C216.678 193.039 203.243 204.186 193.165 208.911C183.087 213.636 166.538 219.742 158.415 220.586C150.291 221.43 147.403 220.808 141.356 225.853C135.308 230.899 127.817 226.905 124.834 221.06C121.85 215.216 118.7 210.405 121.968 202.024C125.235 193.644 128.385 185.186 129.789 173.922C131.192 162.657 133.724 148.979 139.113 136.184C144.023 124.559 157.35 105.333 173.136 97.0293C186.301 90.1063 202.367 84.9615 209.75 83.3233C217.134 81.685 218.46 80.4485 223.93 78.0882C229.4 75.7279 234.536 73.5165 240.326 77.2307C246.897 81.4504 248.711 87.2992 248.711 87.2992Z" fill="#8E501C"/>
<path d="M248.712 87.3009C248.712 87.3009 250.269 104.338 250.518 119.438C250.766 134.539 250.969 161.68 224.369 186.316C197.77 210.953 175.178 217.745 158.439 220.575C158.439 220.575 147.752 220.638 143.609 224.054C139.466 227.47 136.113 230.44 129.167 225.295C122.222 220.15 116.892 210.195 125.246 193.609C133.599 177.024 124.681 154.955 148.185 120.314C171.689 85.6717 210.198 86.4976 223.941 78.0763C237.683 69.655 248.279 82.0884 248.712 87.3009Z" stroke="black" stroke-width="1.25793" stroke-miterlimit="10"/>
<path d="M247.308 85.3457C233.918 146.145 190.092 199.43 133.012 224.297" stroke="black" stroke-width="1.25793" stroke-miterlimit="10"/>
<path d="M240.33 77.2363C224.629 82.7964 212.065 94.6701 200.697 106.842C183.582 125.163 168.018 144.872 154.163 165.768C145.485 178.856 137.424 192.544 132.641 207.5" stroke="black" stroke-width="1.25793" stroke-miterlimit="10"/>
<path d="M217.138 81.6855C184.469 93.3065 141.509 136.252 137.141 168.588" stroke="black" stroke-width="1.25793" stroke-miterlimit="10"/>
<path d="M244.125 131.479C232.689 169.586 204.158 202.206 167.914 218.611" stroke="black" stroke-width="1.25793" stroke-miterlimit="10"/>
<g style="mix-blend-mode:overlay" opacity="0.22">
<path d="M142.731 209.887C130.465 204.439 133.849 161.773 135.203 148.582C140.664 132.267 149.013 115.321 161.613 105.234L152.926 107.662C152.926 107.662 129.043 126.423 120.983 154.191C120.983 154.191 117.936 162.477 118.726 180.945C84.996 176.883 46.4098 141.731 46.4098 141.731C42.8806 153.785 54.8175 184.257 71.6375 193.405C80.7222 198.347 94.2702 202.061 104.799 204.439C110.824 212.017 122.621 218.615 122.621 218.615C125.554 225.384 130.613 226.95 130.613 226.95C136.399 232.817 146.919 220.488 146.919 220.488C190.871 216.949 213.711 195.409 213.711 195.409C192.952 205.003 157.267 216.367 142.731 209.887ZM128.596 181.175C128.145 181.215 127.671 181.242 127.211 181.265C128.208 175.267 129.761 167.428 132.076 158.93C130.072 169.495 128.596 181.175 128.596 181.175Z" fill="#0A0A0A"/>
</g>
<g style="mix-blend-mode:overlay" opacity="0.22">
<path d="M135.512 86.4476C135.512 86.4476 146.659 103.723 159.738 98.1182C172.817 92.513 208.542 81.8984 208.542 81.8984C208.542 81.8984 174.961 92.7748 166.751 101.056L158.055 111.382C158.055 111.382 146.131 97.7526 135.526 95.6405C135.512 95.6405 130.562 91.5292 135.512 86.4476Z" fill="#0A0A0A"/>
</g>
<path opacity="0.25" d="M46.409 141.732C46.409 141.732 43.8592 178.094 71.6367 193.406C99.4143 208.719 105.033 205.474 111.649 214.234C118.265 222.994 125.933 227.434 137.139 228.531C137.139 228.531 121.889 227.177 120.594 207.5L124.389 191.394C124.389 191.394 113.035 195.794 91.4443 185.694C91.4443 185.694 68.3332 180.761 46.409 141.732Z" fill="#0A0A0A"/>
</svg>
